<svg width="12" height="12" viewBox="0 0 12 12" fill="none" xmlns="http://www.w3.org/2000/svg">
<path d="M5.98675 11.3334V10.6667H10.2567C10.359 10.6667 10.453 10.624 10.5387 10.5387C10.6245 10.4534 10.6672 10.3591 10.6667 10.256V1.74402C10.6667 1.64135 10.6241 1.54713 10.5387 1.46135C10.4534 1.37558 10.3592 1.33291 10.2561 1.33335H5.98741V0.666687H10.2567C10.5634 0.666687 10.8194 0.769576 11.0247 0.975354C11.2301 1.18113 11.333 1.43735 11.3334 1.74402V10.2567C11.3334 10.5634 11.2305 10.8196 11.0247 11.0254C10.819 11.2311 10.563 11.3338 10.2567 11.3334H5.98675ZM5.51341 8.35935L5.04475 7.87935L6.59141 6.33335H0.666748V5.66669H6.59141L5.04475 4.12002L5.51275 3.64135L7.87208 6.00002L5.51341 8.35935Z" fill="#3A7BD5"/>
</svg>
