<svg width="138" height="20" viewBox="0 0 138 20" fill="none" xmlns="http://www.w3.org/2000/svg">
<path d="M11.6807 0.0634766H12.999C16.5928 0.0634766 18.7363 1.2793 19.4297 3.71094C19.6641 4.51172 19.7812 5.42969 19.7812 6.46484V20H11.6807V0.0634766ZM0.870117 6.46484C0.870117 4.30664 1.36328 2.72461 2.34961 1.71875C3.43359 0.615234 5.20117 0.0634766 7.65234 0.0634766H8.9707V20H0.870117V6.46484ZM23.5312 0.0634766H31.4121V19.9707H23.5312V0.0634766ZM33.9316 18.5791C33.9316 16.5576 35.1035 15.1855 37.4473 14.4629C38.3457 14.1895 39.5029 14.0527 40.9189 14.0527H42.0762V20H33.9316V18.5791ZM56.5488 6.27441C56.5488 4.08691 57.1055 2.50977 58.2188 1.54297C59.3613 0.556641 61.1924 0.0634766 63.7119 0.0634766H64.6055V10.5957C64.6055 15.1367 63.3066 18.0469 60.709 19.3262C59.8008 19.7754 58.7119 20 57.4424 20H56.5488V6.27441ZM53.0918 20C50.6406 20 48.8145 19.1455 47.6133 17.4365C46.5 15.8545 45.9434 13.5742 45.9434 10.5957V0.0634766H46.8369C49.3564 0.0634766 51.1875 0.556641 52.3301 1.54297C53.4434 2.50977 54 4.08691 54 6.27441V20H53.0918ZM78.8877 0.0634766H87.0176V5.60059H85.4941C82.8477 5.60059 81.041 5.18555 80.0742 4.35547C79.2832 3.67187 78.8877 2.56836 78.8877 1.04492V0.0634766ZM68.4727 0.0634766H76.3535V8.09082H82.2275V11.9141H76.3535V19.9707H68.4727V0.0634766ZM78.873 18.5791C78.873 16.5576 80.0449 15.1855 82.3887 14.4629C83.2871 14.1895 84.4443 14.0527 85.8604 14.0527H87.0176V20H78.873V18.5791ZM101.476 0.0634766H102.794C106.388 0.0634766 108.531 1.2793 109.225 3.71094C109.459 4.51172 109.576 5.42969 109.576 6.46484V20H101.476V0.0634766ZM90.8408 0.0634766H98.7217V20H90.8408V0.0634766ZM130.729 0.0634766H137.291V8.33984H135.65C134.576 8.33984 133.785 8.22754 133.277 8.00293C132.77 7.76855 132.369 7.50977 132.076 7.22656C131.793 6.93359 131.549 6.55273 131.344 6.08398C130.934 5.12695 130.729 3.79883 130.729 2.09961V0.0634766ZM121.251 0.0634766H129.132V20H121.251V0.0634766ZM113.048 0.0634766H119.61V2.09961C119.61 4.60938 119.156 6.31836 118.248 7.22656C117.506 7.96875 116.319 8.33984 114.688 8.33984H113.048V0.0634766Z" fill="#3A7BD5"/>
</svg>
