<svg width="41" height="40" viewBox="0 0 41 40" fill="none" xmlns="http://www.w3.org/2000/svg">
<rect x="0.5" width="40" height="40" rx="20" fill="#FF6B6B"/>
<path d="M18.5 26C20.275 25.9996 21.9988 25.4054 23.397 24.312L27.793 28.708L29.207 27.294L24.811 22.898C25.905 21.4997 26.4996 19.7754 26.5 18C26.5 13.589 22.911 10 18.5 10C14.089 10 10.5 13.589 10.5 18C10.5 22.411 14.089 26 18.5 26ZM18.5 12C21.809 12 24.5 14.691 24.5 18C24.5 21.309 21.809 24 18.5 24C15.191 24 12.5 21.309 12.5 18C12.5 14.691 15.191 12 18.5 12Z" fill="white"/>
</svg>
