<svg width="28" height="28" viewBox="0 0 28 28" fill="none" xmlns="http://www.w3.org/2000/svg">
<path d="M15.9915 3.84183C15.8833 3.73328 15.7548 3.6472 15.6132 3.58853C15.4717 3.52987 15.3199 3.49978 15.1667 3.5H4.66667C4.35725 3.5 4.0605 3.62292 3.84171 3.84171C3.62292 4.0605 3.5 4.35725 3.5 4.66667V15.1667C3.5 15.477 3.6225 15.7733 3.84183 15.9915L13.1752 25.3248C13.2833 25.4336 13.4118 25.5198 13.5533 25.5787C13.6949 25.6376 13.8467 25.6679 14 25.6679C14.1533 25.6679 14.3051 25.6376 14.4467 25.5787C14.5882 25.5198 14.7167 25.4336 14.8248 25.3248L25.3248 14.8248C25.4333 14.7166 25.5193 14.588 25.578 14.4465C25.6367 14.3049 25.6669 14.1532 25.6669 14C25.6669 13.8468 25.6367 13.6951 25.578 13.5535C25.5193 13.412 25.4333 13.2834 25.3248 13.1752L15.9915 3.84183ZM14 22.8503L5.83333 14.6837V5.83333H14.6837L22.8503 14L14 22.8503Z" fill="white"/>
<path d="M9.91203 11.6667C10.8818 11.6667 11.6679 10.8805 11.6679 9.91082C11.6679 8.9411 10.8818 8.15499 9.91203 8.15499C8.94231 8.15499 8.1562 8.9411 8.1562 9.91082C8.1562 10.8805 8.94231 11.6667 9.91203 11.6667Z" fill="white"/>
</svg>
