<svg width="20" height="20" viewBox="0 0 20 20" fill="none" xmlns="http://www.w3.org/2000/svg">
<path d="M8.33105 2.93751C8.33105 1.82969 9.23262 0.928131 10.3404 0.928131C11.4482 0.928131 12.3498 1.82969 12.3498 2.93751C12.3498 4.04532 11.4482 4.94688 10.3404 4.94688C9.23262 4.94688 8.33105 4.04688 8.33105 2.93751ZM9.4998 2.93751C9.4998 3.40157 9.87637 3.77813 10.3404 3.77813C10.8045 3.77813 11.1811 3.40157 11.1811 2.93751C11.1811 2.47344 10.8045 2.09688 10.3404 2.09688C9.87637 2.09688 9.4998 2.47501 9.4998 2.93751Z" fill="#E2A610"/>
<path d="M12.0686 1.91876C12.0686 1.91876 12.1576 2.27345 11.7467 2.4672C11.3357 2.65939 11.0639 2.5172 11.0639 2.5172C11.1373 2.6422 11.1811 2.78439 11.1811 2.93907C11.1811 3.40314 10.8045 3.7797 10.3404 3.7797C9.87637 3.7797 9.4998 3.40314 9.4998 2.93907C9.4998 2.8922 9.51074 2.71564 9.58574 2.56876C8.88887 2.90001 8.35918 2.6172 8.35918 2.6172C8.34199 2.72189 8.33105 2.8297 8.33105 2.93907C8.33105 4.04689 9.23262 4.94845 10.3404 4.94845C11.4482 4.94845 12.3498 4.04689 12.3498 2.93751C12.3498 2.56564 12.2467 2.2172 12.0686 1.91876Z" fill="#9E740B"/>
<path d="M1.63438 15.2812C2.6922 14.2422 3.35157 13.8922 3.62032 12.3859C3.88907 10.8797 3.67345 7.70625 4.85782 5.62813C5.93907 3.725 7.92344 2.9375 9.85938 2.9375C9.90626 2.9375 9.95313 2.94063 10 2.94063C10.0469 2.93906 10.0938 2.9375 10.1406 2.9375C12.0766 2.9375 14.0609 3.725 15.1422 5.62656C16.325 7.70625 16.1109 10.8797 16.3797 12.3844C16.6484 13.8906 17.3078 14.2406 18.3656 15.2797C18.8219 15.7281 19.3734 16.4422 19.375 16.9016C19.3766 17.3609 19.1422 17.5281 18.5844 17.7625C17.0063 18.4266 14.8969 19.0703 10 19.0703C5.10313 19.0703 2.99376 18.4266 1.41563 17.7625C0.85782 17.5281 0.623445 17.3625 0.625008 16.9016C0.62657 16.4437 1.17813 15.7297 1.63438 15.2812Z" fill="#FFCA28"/>
<path d="M17.7656 16.9344C17.7656 16.2422 14.2891 15.6812 10 15.6812C5.71094 15.6812 2.23438 16.2422 2.23438 16.9344C2.23438 17.6266 5.71094 18.4531 10 18.4531C14.2891 18.4531 17.7656 17.6266 17.7656 16.9344Z" fill="#4E342E"/>
<path d="M14.6623 6.99843C14.7201 7.21874 14.7686 7.43905 14.8076 7.65468C15.0061 8.7578 14.9701 9.88906 15.0592 11.0062C15.1795 12.5016 15.4451 13.2891 16.0498 13.9922C16.1295 14.0844 16.0483 14.2266 15.928 14.2078C15.1201 14.0844 14.4717 13.9609 13.7326 13.4734C12.6295 12.7469 12.3576 11.3797 12.3498 10.1516C12.3373 8.32343 12.3717 6.55312 12.2264 5.88124C12.0248 4.9453 11.8373 4.44687 11.5311 3.99218C11.0639 3.29843 12.878 4.26093 13.1623 4.47499C13.9545 5.07343 14.4092 6.03593 14.6623 6.99843Z" fill="#E2A610"/>
<path d="M4.82646 9.425C4.80771 8.24063 4.81709 7.01563 5.28896 5.92813C5.57177 5.27813 6.05146 4.69219 6.66396 4.32813C7.14521 4.04219 8.12334 3.72657 8.4749 4.375C8.54521 4.50469 8.57334 4.65626 8.57802 4.80469C8.59052 5.32188 8.32177 5.8 8.06084 6.24688C7.28896 7.57188 6.98115 9.02032 6.57334 10.4891C6.40615 11.0953 6.19365 11.7 5.82959 12.2125C5.57959 12.5641 4.1874 13.8141 4.50615 12.6844C4.8124 11.5922 4.84365 10.5625 4.82646 9.425Z" fill="#FFF59D"/>
<path d="M11.4203 16.6906C11.4188 16.4219 11.2735 16.2672 10.9391 16.1516C10.2453 15.9125 9.37658 15.9563 8.87033 16.2281C8.33908 16.5125 8.70783 18.0891 10 18.0891C11.2922 18.0891 11.4219 16.8953 11.4203 16.6906Z" fill="#E2A610"/>
<path d="M5.19507 14.3422C3.8232 14.5828 2.82945 15.1031 2.39976 15.525C2.05914 15.8578 2.05914 16.1203 2.65914 15.8469C3.1107 15.6406 4.55757 15.2219 5.82476 15.0953C8.00132 14.8766 9.34507 14.8719 9.56851 14.8766C10.0919 14.8875 10.1357 14.4844 9.07789 14.3422C8.02007 14.2016 6.56695 14.1031 5.19507 14.3422ZM9.44664 17.7844C9.62789 17.9094 9.86851 17.9703 10.0716 17.8859C10.2748 17.8016 10.406 17.5437 10.306 17.3484C10.2669 17.2719 10.1998 17.2141 10.1326 17.1609C9.94664 17.0156 9.74039 16.8969 9.52164 16.8094C9.4357 16.775 9.34507 16.7437 9.25132 16.75C9.15914 16.7547 9.06226 16.8031 9.02632 16.8891C8.87164 17.2406 9.18101 17.6031 9.44664 17.7844Z" fill="#FFF59D"/>
</svg>
