<svg width="16" height="18" viewBox="0 0 16 18" fill="none" xmlns="http://www.w3.org/2000/svg">
<path d="M3.83333 8.16667H5.5V9.83334H3.83333V8.16667ZM3.83333 11.5H5.5V13.1667H3.83333V11.5ZM7.16667 8.16667H8.83333V9.83334H7.16667V8.16667ZM7.16667 11.5H8.83333V13.1667H7.16667V11.5ZM10.5 8.16667H12.1667V9.83334H10.5V8.16667ZM10.5 11.5H12.1667V13.1667H10.5V11.5Z" fill="#757575"/>
<path d="M2.16667 17.3333H13.8333C14.7525 17.3333 15.5 16.5858 15.5 15.6667V4.00001C15.5 3.08084 14.7525 2.33334 13.8333 2.33334H12.1667V0.666672H10.5V2.33334H5.5V0.666672H3.83333V2.33334H2.16667C1.2475 2.33334 0.5 3.08084 0.5 4.00001V15.6667C0.5 16.5858 1.2475 17.3333 2.16667 17.3333ZM13.8333 5.66667L13.8342 15.6667H2.16667V5.66667H13.8333Z" fill="#757575"/>
</svg>
