<svg width="15" height="17" viewBox="0 0 15 17" fill="none" xmlns="http://www.w3.org/2000/svg">
<path d="M3.33333 7.66663H5V9.33329H3.33333V7.66663ZM3.33333 11H5V12.6666H3.33333V11ZM6.66667 7.66663H8.33333V9.33329H6.66667V7.66663ZM6.66667 11H8.33333V12.6666H6.66667V11ZM10 7.66663H11.6667V9.33329H10V7.66663ZM10 11H11.6667V12.6666H10V11Z" fill="#757575"/>
<path d="M1.66667 16.8333H13.3333C14.2525 16.8333 15 16.0858 15 15.1666V3.49996C15 2.58079 14.2525 1.83329 13.3333 1.83329H11.6667V0.166626H10V1.83329H5V0.166626H3.33333V1.83329H1.66667C0.7475 1.83329 0 2.58079 0 3.49996V15.1666C0 16.0858 0.7475 16.8333 1.66667 16.8333ZM13.3333 5.16663L13.3342 15.1666H1.66667V5.16663H13.3333Z" fill="#757575"/>
</svg>