<svg width="40" height="35" viewBox="0 0 40 35" fill="none" xmlns="http://www.w3.org/2000/svg">
<path d="M26.6671 24.1667L20.0004 17.5M20.0004 17.5L13.3338 24.1667M20.0004 17.5V32.5M33.9838 28.15C35.6093 27.2638 36.8935 25.8615 37.6335 24.1644C38.3736 22.4673 38.5274 20.572 38.0708 18.7778C37.6141 16.9836 36.5729 15.3925 35.1115 14.2557C33.6502 13.119 31.8519 12.5012 30.0004 12.5H27.9004C27.3959 10.5487 26.4557 8.73722 25.1503 7.20165C23.845 5.66608 22.2085 4.44641 20.3639 3.63434C18.5193 2.82227 16.5147 2.43892 14.5006 2.51313C12.4866 2.58734 10.5155 3.11716 8.73572 4.06277C6.9559 5.00838 5.41361 6.34516 4.22479 7.97263C3.03598 9.60009 2.23157 11.4759 1.87206 13.459C1.51254 15.4421 1.60726 17.4809 2.14911 19.4221C2.69096 21.3633 3.66583 23.1564 5.00042 24.6667" stroke="#333333" stroke-width="4" stroke-linecap="round" stroke-linejoin="round"/>
</svg>
