<svg width="24" height="28" viewBox="0 0 24 28" fill="none" xmlns="http://www.w3.org/2000/svg">
<path d="M2.66667 24.6666C2.66667 25.3739 2.94762 26.0521 3.44772 26.5522C3.94781 27.0523 4.62609 27.3333 5.33333 27.3333H18.6667C19.3739 27.3333 20.0522 27.0523 20.5523 26.5522C21.0524 26.0521 21.3333 25.3739 21.3333 24.6666V8.66663H24V5.99996H18.6667V3.33329C18.6667 2.62605 18.3857 1.94777 17.8856 1.44767C17.3855 0.947577 16.7072 0.666626 16 0.666626H8C7.29276 0.666626 6.61448 0.947577 6.11438 1.44767C5.61428 1.94777 5.33333 2.62605 5.33333 3.33329V5.99996H0V8.66663H2.66667V24.6666ZM8 3.33329H16V5.99996H8V3.33329ZM18.6667 8.66663V24.6666H5.33333V8.66663H18.6667Z" fill="#D71919"/>
<path d="M8 11.3333H10.6667V22H8V11.3333ZM13.3333 11.3333H16V22H13.3333V11.3333Z" fill="#D71919"/>
</svg>
