<svg width="24" height="28" viewBox="0 0 24 28" fill="none" xmlns="http://www.w3.org/2000/svg">
<path d="M2.66667 24.6667C2.66667 25.374 2.94762 26.0523 3.44772 26.5524C3.94781 27.0525 4.62609 27.3334 5.33333 27.3334H18.6667C19.3739 27.3334 20.0522 27.0525 20.5523 26.5524C21.0524 26.0523 21.3333 25.374 21.3333 24.6667V8.66675H24V6.00008H18.6667V3.33341C18.6667 2.62617 18.3857 1.94789 17.8856 1.4478C17.3855 0.9477 16.7072 0.666748 16 0.666748H8C7.29276 0.666748 6.61448 0.9477 6.11438 1.4478C5.61428 1.94789 5.33333 2.62617 5.33333 3.33341V6.00008H0V8.66675H2.66667V24.6667ZM8 3.33341H16V6.00008H8V3.33341ZM18.6667 8.66675V24.6667H5.33333V8.66675H18.6667Z" fill="#D71919"/>
<path d="M8 11.3334H10.6667V22.0001H8V11.3334ZM13.3333 11.3334H16V22.0001H13.3333V11.3334Z" fill="#D71919"/>
</svg>
