<svg width="23" height="23" viewBox="0 0 23 23" fill="none" xmlns="http://www.w3.org/2000/svg">
<path d="M12.9915 0.841835C12.8833 0.733285 12.7548 0.647199 12.6132 0.588533C12.4717 0.529867 12.3199 0.499779 12.1667 0.500001H1.66667C1.35725 0.500001 1.0605 0.622917 0.841709 0.84171C0.622916 1.0605 0.5 1.35725 0.5 1.66667V12.1667C0.5 12.477 0.6225 12.7733 0.841833 12.9915L10.1752 22.3248C10.2833 22.4336 10.4118 22.5198 10.5533 22.5787C10.6949 22.6376 10.8467 22.6679 11 22.6679C11.1533 22.6679 11.3051 22.6376 11.4467 22.5787C11.5882 22.5198 11.7167 22.4336 11.8248 22.3248L22.3248 11.8248C22.4333 11.7166 22.5193 11.588 22.578 11.4465C22.6367 11.3049 22.6669 11.1532 22.6669 11C22.6669 10.8468 22.6367 10.6951 22.578 10.5535C22.5193 10.412 22.4333 10.2834 22.3248 10.1752L12.9915 0.841835ZM11 19.8503L2.83333 11.6837V2.83333H11.6837L19.8503 11L11 19.8503Z" fill="white"/>
<path d="M6.91203 8.66666C7.88175 8.66666 8.66787 7.88054 8.66787 6.91082C8.66787 5.9411 7.88175 5.15499 6.91203 5.15499C5.94231 5.15499 5.1562 5.9411 5.1562 6.91082C5.1562 7.88054 5.94231 8.66666 6.91203 8.66666Z" fill="white"/>
</svg>
