<svg width="16" height="17" viewBox="0 0 16 17" fill="none" xmlns="http://www.w3.org/2000/svg">
<path d="M7 4.50001C7 4.36101 7 4.29101 7.008 4.23301C7.0336 4.05004 7.11812 3.8804 7.24876 3.74976C7.37939 3.61913 7.54904 3.53461 7.732 3.50901C7.791 3.50101 7.86 3.50101 7.999 3.50101C8.138 3.50101 8.209 3.50101 8.266 3.50901C8.44896 3.53461 8.61861 3.61913 8.74924 3.74976C8.87988 3.8804 8.9644 4.05004 8.99 4.23301C8.998 4.29101 8.998 4.36101 8.998 4.50001C8.998 4.63901 8.998 4.70901 8.99 4.76701C8.9644 4.94997 8.87988 5.11961 8.74924 5.25025C8.61861 5.38089 8.44896 5.4654 8.266 5.49101C8.208 5.49901 8.138 5.49901 7.999 5.49901C7.86 5.49901 7.79 5.49901 7.732 5.49101C7.54904 5.4654 7.37939 5.38089 7.24876 5.25025C7.11812 5.11961 7.0336 4.94997 7.008 4.76701C7 4.70901 7 4.63901 7 4.50001ZM7 8.50001C7 8.36101 7 8.29101 7.008 8.23301C7.0336 8.05004 7.11812 7.8804 7.24876 7.74976C7.37939 7.61913 7.54904 7.53461 7.732 7.50901C7.791 7.50101 7.86 7.50101 7.999 7.50101C8.138 7.50101 8.209 7.50101 8.266 7.50901C8.44896 7.53461 8.61861 7.61913 8.74924 7.74976C8.87988 7.8804 8.9644 8.05004 8.99 8.23301C8.998 8.29101 8.998 8.36101 8.998 8.50001C8.998 8.63901 8.998 8.70901 8.99 8.76701C8.9644 8.94997 8.87988 9.11961 8.74924 9.25025C8.61861 9.38089 8.44896 9.4654 8.266 9.49101C8.208 9.49901 8.138 9.49901 7.999 9.49901C7.86 9.49901 7.79 9.49901 7.732 9.49101C7.54904 9.4654 7.37939 9.38089 7.24876 9.25025C7.11812 9.11961 7.0336 8.94997 7.008 8.76701C7 8.70901 7 8.63901 7 8.50001ZM7 12.5C7 12.361 7 12.291 7.008 12.233C7.0336 12.05 7.11812 11.8804 7.24876 11.7498C7.37939 11.6191 7.54904 11.5346 7.732 11.509C7.791 11.501 7.86 11.501 7.999 11.501C8.138 11.501 8.209 11.501 8.266 11.509C8.44896 11.5346 8.61861 11.6191 8.74924 11.7498C8.87988 11.8804 8.9644 12.05 8.99 12.233C8.998 12.291 8.998 12.361 8.998 12.5C8.998 12.639 8.998 12.709 8.99 12.768C8.9644 12.951 8.87988 13.1206 8.74924 13.2512C8.61861 13.3819 8.44896 13.4664 8.266 13.492C8.208 13.5 8.138 13.5 8 13.5C7.862 13.5 7.791 13.5 7.733 13.492C7.55003 13.4664 7.38039 13.3819 7.24976 13.2512C7.11912 13.1206 7.0346 12.951 7.009 12.768C7 12.71 7 12.64 7 12.5Z" fill="black"/>
</svg>
