<svg width="18" height="16" viewBox="0 0 18 16" fill="none" xmlns="http://www.w3.org/2000/svg">
<path d="M0.75 1.58325V0.895752C0.567664 0.895752 0.392795 0.968185 0.263864 1.09712C0.134933 1.22605 0.0625 1.40092 0.0625 1.58325H0.75ZM17.25 1.58325H17.9375C17.9375 1.40092 17.8651 1.22605 17.7361 1.09712C17.6072 0.968185 17.4323 0.895752 17.25 0.895752V1.58325ZM0.75 2.27075H17.25V0.895752H0.75V2.27075ZM16.5625 1.58325V12.5833H17.9375V1.58325H16.5625ZM15.4167 13.7291H2.58333V15.1041H15.4167V13.7291ZM1.4375 12.5833V1.58325H0.0625V12.5833H1.4375ZM2.58333 13.7291C1.95083 13.7291 1.4375 13.2158 1.4375 12.5833H0.0625C0.0625 13.2518 0.328087 13.893 0.800835 14.3658C1.27358 14.8385 1.91477 15.1041 2.58333 15.1041V13.7291ZM16.5625 12.5833C16.5625 13.2158 16.0492 13.7291 15.4167 13.7291V15.1041C16.0852 15.1041 16.7264 14.8385 17.1992 14.3658C17.6719 13.893 17.9375 13.2518 17.9375 12.5833H16.5625Z" fill="#757575"/>
<path d="M0.75 1.58325L9 9.83325L17.25 1.58325" stroke="#757575" stroke-width="1.5" stroke-linecap="round" stroke-linejoin="round"/>
</svg>
