<svg width="28" height="28" viewBox="0 0 28 28" fill="none" xmlns="http://www.w3.org/2000/svg">
<path d="M20.0183 7.98437C19.5633 7.52927 19.297 6.91919 19.2724 6.27616C19.2479 5.63313 19.467 5.00453 19.8859 4.51608C19.9206 4.47546 19.9386 4.42324 19.9364 4.3699C19.9341 4.31655 19.9118 4.26602 19.8739 4.22843L17.4606 1.81233C17.4207 1.77246 17.3666 1.75006 17.3102 1.75006C17.2538 1.75006 17.1997 1.77246 17.1598 1.81233L13.3131 5.65905C13.1711 5.80092 13.0642 5.97394 13.0008 6.16437C12.9376 6.35521 12.8308 6.52871 12.6889 6.6711C12.547 6.81349 12.3738 6.92086 12.1832 6.98468C11.9927 7.04817 11.8195 7.15507 11.6774 7.29694L1.81227 17.1598C1.7724 17.1997 1.75 17.2538 1.75 17.3102C1.75 17.3666 1.7724 17.4207 1.81227 17.4606L4.22563 19.874C4.26322 19.9119 4.31375 19.9342 4.3671 19.9364C4.42045 19.9387 4.47267 19.9207 4.51329 19.886C5.00163 19.4666 5.63037 19.2471 6.27362 19.2715C6.91688 19.2959 7.52718 19.5624 7.98236 20.0176C8.43754 20.4727 8.704 21.083 8.72839 21.7263C8.75278 22.3696 8.53331 22.9983 8.11391 23.4866C8.07926 23.5273 8.06125 23.5795 8.06348 23.6328C8.06571 23.6862 8.08802 23.7367 8.12594 23.7743L10.5393 26.1876C10.5792 26.2275 10.6333 26.2499 10.6897 26.2499C10.7461 26.2499 10.8002 26.2275 10.8401 26.1876L20.7057 16.3226C20.8476 16.1804 20.9545 16.0072 21.018 15.8167C21.0812 15.6259 21.1879 15.4524 21.3299 15.31C21.4718 15.1676 21.6449 15.0602 21.8356 14.9964C22.026 14.933 22.199 14.8261 22.3409 14.6841L26.1876 10.8374C26.2275 10.7975 26.2499 10.7434 26.2499 10.687C26.2499 10.6306 26.2275 10.5765 26.1876 10.5366L23.7742 8.12327C23.7366 8.08535 23.6861 8.06304 23.6328 8.06081C23.5794 8.05858 23.5272 8.07659 23.4866 8.11124C22.9988 8.5309 22.3706 8.75097 21.7276 8.72744C21.0845 8.70392 20.4741 8.43854 20.0183 7.98437Z" stroke="#757575" stroke-miterlimit="10"/>
<path d="M13.6993 7.6803L12.7964 6.7774M16.1066 10.0876L15.5045 9.48608M18.514 12.4955L17.9124 11.8934M21.2226 15.2037L20.3197 14.3008" stroke="#757575" stroke-miterlimit="10" stroke-linecap="round"/>
</svg>
