<svg width="16" height="17" viewBox="0 0 16 17" fill="none" xmlns="http://www.w3.org/2000/svg">
<path d="M14.537 7.19434H14V7.16668H8.00001V9.83334H11.7677C11.218 11.3857 9.74101 12.5 8.00001 12.5C5.79101 12.5 4.00001 10.709 4.00001 8.50001C4.00001 6.29101 5.79101 4.50001 8.00001 4.50001C9.01968 4.50001 9.94734 4.88468 10.6537 5.51301L12.5393 3.62734C11.3487 2.51768 9.75601 1.83334 8.00001 1.83334C4.31834 1.83334 1.33334 4.81834 1.33334 8.50001C1.33334 12.1817 4.31834 15.1667 8.00001 15.1667C11.6817 15.1667 14.6667 12.1817 14.6667 8.50001C14.6667 8.05301 14.6207 7.61668 14.537 7.19434Z" fill="#FFC107"/>
<path d="M2.10199 5.39701L4.29232 7.00334C4.88499 5.53601 6.32032 4.50001 7.99999 4.50001C9.01966 4.50001 9.94732 4.88468 10.6537 5.51301L12.5393 3.62734C11.3487 2.51768 9.75599 1.83334 7.99999 1.83334C5.43932 1.83334 3.21866 3.27901 2.10199 5.39701Z" fill="#FF3D00"/>
<path d="M8 15.1667C9.722 15.1667 11.2867 14.5077 12.4697 13.436L10.4063 11.69C9.71463 12.2163 8.86919 12.5009 8 12.5C6.266 12.5 4.79367 11.3943 4.239 9.85132L2.065 11.5263C3.16834 13.6853 5.409 15.1667 8 15.1667Z" fill="#4CAF50"/>
<path d="M14.537 7.19432H14V7.16666H8V9.83332H11.7677C11.5047 10.5721 11.0311 11.2177 10.4053 11.6903L10.4063 11.6897L12.4697 13.4357C12.3237 13.5683 14.6667 11.8333 14.6667 8.49999C14.6667 8.05299 14.6207 7.61666 14.537 7.19432Z" fill="#1976D2"/>
</svg>
