<svg width="31" height="29" viewBox="0 0 31 29" fill="none" xmlns="http://www.w3.org/2000/svg">
<path d="M14.849 28.168C15.0391 28.3026 15.2663 28.375 15.4993 28.375C15.7322 28.375 15.9594 28.3026 16.1495 28.168L15.5 27.25L16.151 28.168L16.163 28.159L16.1945 28.1365L16.3145 28.0495C16.9945 27.5487 17.6627 27.0321 18.3185 26.5C19.9734 25.1583 21.5537 23.7271 23.0525 22.213C24.7745 20.4595 26.525 18.412 27.851 16.24C29.171 14.08 30.125 11.704 30.125 9.322C30.125 6.4945 29.2475 4.285 27.695 2.785C26.15 1.294 24.065 0.6265 21.875 0.6265C19.2875 0.6265 17.003 1.876 15.5 3.802C13.997 1.8745 11.711 0.625 9.125 0.625C4.505 0.625 0.875 4.5835 0.875 9.3205C0.875 11.7025 1.8305 14.077 3.149 16.2385C4.475 18.4105 6.2255 20.458 7.9475 22.2115C10.0397 24.3282 12.2924 26.28 14.6855 28.0495L14.8055 28.1365L14.837 28.159L14.849 28.168Z" fill="#E65757"/>
</svg>