<svg width="14" height="18" viewBox="0 0 14 18" fill="none" xmlns="http://www.w3.org/2000/svg">
<path d="M7.00021 10.6667C8.83855 10.6667 10.3335 9.17166 10.3335 7.33333C10.3335 5.495 8.83855 4 7.00021 4C5.16188 4 3.66688 5.495 3.66688 7.33333C3.66688 9.17166 5.16188 10.6667 7.00021 10.6667ZM7.00021 5.66666C7.91938 5.66666 8.66688 6.41416 8.66688 7.33333C8.66688 8.2525 7.91938 9 7.00021 9C6.08105 9 5.33355 8.2525 5.33355 7.33333C5.33355 6.41416 6.08105 5.66666 7.00021 5.66666Z" fill="#757575"/>
<path d="M6.5169 17.1783C6.65794 17.2791 6.82692 17.3332 7.00024 17.3332C7.17355 17.3332 7.34253 17.2791 7.48357 17.1783C7.7369 16.9992 13.6911 12.7 13.6669 7.33333C13.6669 3.6575 10.6761 0.666664 7.00024 0.666664C3.3244 0.666664 0.333569 3.6575 0.333569 7.32916C0.309403 12.7 6.26357 16.9992 6.5169 17.1783ZM7.00024 2.33333C9.75774 2.33333 12.0002 4.57583 12.0002 7.3375C12.0177 11.0358 8.34357 14.3567 7.00024 15.4458C5.65774 14.3558 1.98274 11.0342 2.00024 7.33333C2.00024 4.57583 4.24274 2.33333 7.00024 2.33333Z" fill="#757575"/>
</svg>
