<svg width="21" height="21" viewBox="0 0 21 21" fill="none" xmlns="http://www.w3.org/2000/svg">
<path d="M10.5001 12.1666C12.3384 12.1666 13.8334 10.6716 13.8334 8.83329C13.8334 6.99496 12.3384 5.49996 10.5001 5.49996C8.66176 5.49996 7.16676 6.99496 7.16676 8.83329C7.16676 10.6716 8.66176 12.1666 10.5001 12.1666ZM10.5001 7.16663C11.4193 7.16663 12.1668 7.91413 12.1668 8.83329C12.1668 9.75246 11.4193 10.5 10.5001 10.5C9.58092 10.5 8.83343 9.75246 8.83343 8.83329C8.83343 7.91413 9.58092 7.16663 10.5001 7.16663Z" fill="#757575"/>
<path d="M10.0168 18.6783C10.1578 18.779 10.3268 18.8332 10.5001 18.8332C10.6734 18.8332 10.8424 18.779 10.9834 18.6783C11.2368 18.4991 17.1909 14.2 17.1668 8.83329C17.1668 5.15746 14.1759 2.16663 10.5001 2.16663C6.82428 2.16663 3.83345 5.15746 3.83345 8.82913C3.80928 14.2 9.76345 18.4991 10.0168 18.6783ZM10.5001 3.83329C13.2576 3.83329 15.5001 6.07579 15.5001 8.83746C15.5176 12.5358 11.8434 15.8566 10.5001 16.9458C9.15761 15.8558 5.48261 12.5341 5.50011 8.83329C5.50011 6.07579 7.74261 3.83329 10.5001 3.83329Z" fill="#757575"/>
</svg>
