<svg width="20" height="20" viewBox="0 0 20 20" fill="none" xmlns="http://www.w3.org/2000/svg">
<path d="M10.0001 11.6666C11.8384 11.6666 13.3334 10.1716 13.3334 8.33329C13.3334 6.49496 11.8384 4.99996 10.0001 4.99996C8.16176 4.99996 6.66676 6.49496 6.66676 8.33329C6.66676 10.1716 8.16176 11.6666 10.0001 11.6666ZM10.0001 6.66663C10.9193 6.66663 11.6668 7.41413 11.6668 8.33329C11.6668 9.25246 10.9193 9.99996 10.0001 9.99996C9.08092 9.99996 8.33343 9.25246 8.33343 8.33329C8.33343 7.41413 9.08092 6.66663 10.0001 6.66663Z" fill="#FFF0F0"/>
<path d="M9.51678 18.1783C9.65782 18.279 9.8268 18.3332 10.0001 18.3332C10.1734 18.3332 10.3424 18.279 10.4834 18.1783C10.7368 17.9991 16.6909 13.7 16.6668 8.33329C16.6668 4.65746 13.6759 1.66663 10.0001 1.66663C6.32428 1.66663 3.33345 4.65746 3.33345 8.32913C3.30928 13.7 9.26345 17.9991 9.51678 18.1783ZM10.0001 3.33329C12.7576 3.33329 15.0001 5.57579 15.0001 8.33746C15.0176 12.0358 11.3434 15.3566 10.0001 16.4458C8.65761 15.3558 4.98261 12.0341 5.00011 8.33329C5.00011 5.57579 7.24261 3.33329 10.0001 3.33329Z" fill="#FFF0F0"/>
</svg>
