<svg width="183" height="27" viewBox="0 0 183 27" fill="none" xmlns="http://www.w3.org/2000/svg">
<path d="M14.7773 0.417969H16.5352C21.3268 0.417969 24.1849 2.03906 25.1094 5.28125C25.4219 6.34896 25.5781 7.57292 25.5781 8.95312V27H14.7773V0.417969ZM0.363281 8.95312C0.363281 6.07552 1.02083 3.96615 2.33594 2.625C3.78125 1.15365 6.13802 0.417969 9.40625 0.417969H11.1641V27H0.363281V8.95312ZM30.5781 0.417969H41.0859V26.9609H30.5781V0.417969ZM44.4453 25.1055C44.4453 22.4102 46.0078 20.5807 49.1328 19.6172C50.3307 19.2526 51.8737 19.0703 53.7617 19.0703H55.3047V27H44.4453V25.1055ZM74.6016 8.69922C74.6016 5.78255 75.3438 3.67969 76.8281 2.39062C78.3516 1.07552 80.793 0.417969 84.1523 0.417969H85.3438V14.4609C85.3438 20.5156 83.612 24.3958 80.1484 26.1016C78.9375 26.7005 77.4857 27 75.793 27H74.6016V8.69922ZM69.9922 27C66.724 27 64.2891 25.8607 62.6875 23.582C61.2031 21.4727 60.4609 18.4323 60.4609 14.4609V0.417969H61.6523C65.0117 0.417969 67.4531 1.07552 68.9766 2.39062C70.4609 3.67969 71.2031 5.78255 71.2031 8.69922V27H69.9922ZM104.387 0.417969H115.227V7.80078H113.195C109.667 7.80078 107.258 7.2474 105.969 6.14062C104.914 5.22917 104.387 3.75781 104.387 1.72656V0.417969ZM90.5 0.417969H101.008V11.1211H108.84V16.2188H101.008V26.9609H90.5V0.417969ZM104.367 25.1055C104.367 22.4102 105.93 20.5807 109.055 19.6172C110.253 19.2526 111.796 19.0703 113.684 19.0703H115.227V27H104.367V25.1055ZM134.504 0.417969H136.262C141.053 0.417969 143.911 2.03906 144.836 5.28125C145.148 6.34896 145.305 7.57292 145.305 8.95312V27H134.504V0.417969ZM120.324 0.417969H130.832V27H120.324V0.417969ZM173.508 0.417969H182.258V11.4531H180.07C178.638 11.4531 177.583 11.3034 176.906 11.0039C176.229 10.6914 175.695 10.3464 175.305 9.96875C174.927 9.57812 174.602 9.07031 174.328 8.44531C173.781 7.16927 173.508 5.39844 173.508 3.13281V0.417969ZM160.871 0.417969H171.379V27H160.871V0.417969ZM149.934 0.417969H158.684V3.13281C158.684 6.47917 158.078 8.75781 156.867 9.96875C155.878 10.9583 154.296 11.4531 152.121 11.4531H149.934V0.417969Z" fill="white"/>
</svg>
