<svg width="110" height="16" viewBox="0 0 110 16" fill="none" xmlns="http://www.w3.org/2000/svg">
<path d="M9.06641 0.0507812H10.1211C12.9961 0.0507812 14.7109 1.02344 15.2656 2.96875C15.4531 3.60938 15.5469 4.34375 15.5469 5.17188V16H9.06641V0.0507812ZM0.417969 5.17188C0.417969 3.44531 0.8125 2.17969 1.60156 1.375C2.46875 0.492188 3.88281 0.0507812 5.84375 0.0507812H6.89844V16H0.417969V5.17188ZM18.5469 0.0507812H24.8516V15.9766H18.5469V0.0507812ZM26.8672 14.8633C26.8672 13.2461 27.8047 12.1484 29.6797 11.5703C30.3984 11.3516 31.3242 11.2422 32.457 11.2422H33.3828V16H26.8672V14.8633ZM44.9609 5.01953C44.9609 3.26953 45.4062 2.00781 46.2969 1.23438C47.2109 0.445313 48.6758 0.0507812 50.6914 0.0507812H51.4062V8.47656C51.4062 12.1094 50.3672 14.4375 48.2891 15.4609C47.5625 15.8203 46.6914 16 45.6758 16H44.9609V5.01953ZM42.1953 16C40.2344 16 38.7734 15.3164 37.8125 13.9492C36.9219 12.6836 36.4766 10.8594 36.4766 8.47656V0.0507812H37.1914C39.207 0.0507812 40.6719 0.445313 41.5859 1.23438C42.4766 2.00781 42.9219 3.26953 42.9219 5.01953V16H42.1953ZM62.832 0.0507812H69.3359V4.48047H68.1172C66 4.48047 64.5547 4.14844 63.7812 3.48438C63.1484 2.9375 62.832 2.05469 62.832 0.835938V0.0507812ZM54.5 0.0507812H60.8047V6.47266H65.5039V9.53125H60.8047V15.9766H54.5V0.0507812ZM62.8203 14.8633C62.8203 13.2461 63.7578 12.1484 65.6328 11.5703C66.3516 11.3516 67.2773 11.2422 68.4102 11.2422H69.3359V16H62.8203V14.8633ZM80.9023 0.0507812H81.957C84.832 0.0507812 86.5469 1.02344 87.1016 2.96875C87.2891 3.60938 87.3828 4.34375 87.3828 5.17188V16H80.9023V0.0507812ZM72.3945 0.0507812H78.6992V16H72.3945V0.0507812ZM104.305 0.0507812H109.555V6.67188H108.242C107.383 6.67188 106.75 6.58203 106.344 6.40234C105.938 6.21484 105.617 6.00781 105.383 5.78125C105.156 5.54688 104.961 5.24219 104.797 4.86719C104.469 4.10156 104.305 3.03906 104.305 1.67969V0.0507812ZM96.7227 0.0507812H103.027V16H96.7227V0.0507812ZM90.1602 0.0507812H95.4102V1.67969C95.4102 3.6875 95.0469 5.05469 94.3203 5.78125C93.7266 6.375 92.7773 6.67188 91.4727 6.67188H90.1602V0.0507812Z" fill="white"/>
</svg>
