<svg width="20" height="21" viewBox="0 0 20 21" fill="none" xmlns="http://www.w3.org/2000/svg">
<path d="M9.99998 17.5C10.946 17.5 11.81 17.397 12.598 17.219L10.841 15.462C10.568 15.483 10.291 15.5 9.99998 15.5C4.64898 15.5 2.57598 11.654 2.07398 10.5C2.45093 9.65878 2.96003 8.88331 3.58198 8.20297L2.18398 6.80497C0.645979 8.47197 0.0629789 10.151 0.0519789 10.184C-0.0170008 10.3893 -0.0170008 10.6116 0.0519789 10.817C0.0729789 10.883 2.36698 17.5 9.99998 17.5ZM9.99998 3.49997C8.16298 3.49997 6.65398 3.89597 5.39598 4.48097L1.70698 0.792969L0.292979 2.20697L18.293 20.207L19.707 18.793L16.388 15.474C19.002 13.523 19.935 10.859 19.949 10.817C20.018 10.6116 20.018 10.3893 19.949 10.184C19.927 10.117 17.633 3.49997 9.99998 3.49997ZM14.972 14.058L12.692 11.778C12.882 11.388 13 10.959 13 10.5C13 8.85897 11.641 7.49997 9.99998 7.49997C9.54098 7.49997 9.11198 7.61797 8.72298 7.80897L6.91498 6.00097C7.9075 5.66038 8.95069 5.49097 9.99998 5.49997C15.351 5.49997 17.424 9.34597 17.926 10.5C17.624 11.192 16.76 12.842 14.972 14.058Z" fill="black" fill-opacity="0.3"/>
</svg>
