<svg width="28" height="28" viewBox="0 0 28 28" fill="none" xmlns="http://www.w3.org/2000/svg">
<path d="M22.1667 4.66669C22.7855 4.66669 23.379 4.91252 23.8166 5.3501C24.2542 5.78769 24.5 6.38118 24.5 7.00002V9.64602C24.8547 9.85081 25.1493 10.1454 25.354 10.5001C25.5588 10.8548 25.6667 11.2571 25.6667 11.6667V16.3334C25.6667 16.7429 25.5588 17.1453 25.354 17.5C25.1493 17.8547 24.8547 18.1492 24.5 18.354V21C24.5 21.6189 24.2542 22.2124 23.8166 22.6499C23.379 23.0875 22.7855 23.3334 22.1667 23.3334H5.83333C5.21449 23.3334 4.621 23.0875 4.18342 22.6499C3.74583 22.2124 3.5 21.6189 3.5 21V7.00002C3.5 6.38118 3.74583 5.78769 4.18342 5.3501C4.621 4.91252 5.21449 4.66669 5.83333 4.66669H22.1667ZM22.1667 7.00002H5.83333V21H22.1667V18.6667H17.5C16.2825 18.6667 15.1132 18.1909 14.2416 17.3409C13.3701 16.4908 12.8652 15.3338 12.8347 14.1167C12.8043 12.8996 13.2507 11.7188 14.0787 10.8263C14.9067 9.93369 16.0507 9.40004 17.2667 9.33919L17.5 9.33335H22.1667V7.00002ZM23.3333 11.6667H17.5C16.8812 11.6667 16.2877 11.9125 15.8501 12.3501C15.4125 12.7877 15.1667 13.3812 15.1667 14C15.1667 14.6189 15.4125 15.2124 15.8501 15.6499C16.2877 16.0875 16.8812 16.3334 17.5 16.3334H23.3333V11.6667ZM18.6667 12.8334C18.9761 12.8334 19.2728 12.9563 19.4916 13.1751C19.7104 13.3939 19.8333 13.6906 19.8333 14C19.8333 14.3094 19.7104 14.6062 19.4916 14.825C19.2728 15.0438 18.9761 15.1667 18.6667 15.1667C18.3572 15.1667 18.0605 15.0438 17.8417 14.825C17.6229 14.6062 17.5 14.3094 17.5 14C17.5 13.6906 17.6229 13.3939 17.8417 13.1751C18.0605 12.9563 18.3572 12.8334 18.6667 12.8334Z" fill="#757575"/>
</svg>
