<svg width="28" height="28" viewBox="0 0 28 28" fill="none" xmlns="http://www.w3.org/2000/svg">
<path d="M16.3335 3.81384C16.3335 2.99601 15.6708 2.33334 14.853 2.33334H13.1485C12.3295 2.33334 11.6668 2.99601 11.6668 3.81384C11.6668 4.48818 11.2048 5.06684 10.576 5.31418C10.4764 5.35462 10.3781 5.39584 10.2808 5.43784C9.66133 5.70618 8.92516 5.62451 8.44683 5.14734C8.16906 4.87021 7.79271 4.71457 7.40033 4.71457C7.00795 4.71457 6.6316 4.87021 6.35383 5.14734L5.1475 6.35368C4.87036 6.63145 4.71472 7.0078 4.71472 7.40018C4.71472 7.79255 4.87036 8.16891 5.1475 8.44668C5.62583 8.92501 5.7075 9.66001 5.43683 10.2807C5.39431 10.3784 5.35347 10.4768 5.31433 10.5758C5.067 11.2047 4.48833 11.6667 3.814 11.6667C2.99616 11.6667 2.3335 12.3293 2.3335 13.1472V14.8528C2.3335 15.6707 2.99616 16.3333 3.814 16.3333C4.48833 16.3333 5.067 16.7953 5.31433 17.4242C5.35477 17.5237 5.39561 17.6221 5.43683 17.7193C5.70633 18.3388 5.62466 19.075 5.1475 19.5533C4.87036 19.8311 4.71472 20.2075 4.71472 20.5998C4.71472 20.9922 4.87036 21.3686 5.1475 21.6463L6.35383 22.8527C6.6316 23.1298 7.00795 23.2855 7.40033 23.2855C7.79271 23.2855 8.16906 23.1298 8.44683 22.8527C8.92516 22.3743 9.66016 22.2927 10.2808 22.5622C10.3781 22.605 10.4764 22.6462 10.576 22.6858C11.2048 22.9332 11.6668 23.5118 11.6668 24.1862C11.6668 25.004 12.3295 25.6667 13.1473 25.6667H14.853C15.6708 25.6667 16.3335 25.004 16.3335 24.1862C16.3335 23.5118 16.7955 22.9332 17.4243 22.6847C17.5239 22.6458 17.6223 22.6053 17.7195 22.5633C18.339 22.2927 19.0752 22.3755 19.5523 22.8527C19.8301 23.1302 20.2067 23.286 20.5994 23.286C20.9921 23.286 21.3687 23.1302 21.6465 22.8527L22.8528 21.6463C23.13 21.3686 23.2856 20.9922 23.2856 20.5998C23.2856 20.2075 23.13 19.8311 22.8528 19.5533C22.3745 19.075 22.2928 18.34 22.5623 17.7193C22.6051 17.6221 22.6463 17.5237 22.686 17.4242C22.9333 16.7953 23.512 16.3333 24.1863 16.3333C25.0042 16.3333 25.6668 15.6707 25.6668 14.8528V13.1483C25.6668 12.3305 25.0042 11.6678 24.1863 11.6678C23.512 11.6678 22.9333 11.2058 22.6848 10.577C22.6457 10.4779 22.6048 10.3795 22.5623 10.2818C22.294 9.66234 22.3757 8.92618 22.8528 8.44784C23.13 8.17007 23.2856 7.79372 23.2856 7.40134C23.2856 7.00897 23.13 6.63261 22.8528 6.35484L21.6465 5.14851C21.3687 4.87138 20.9924 4.71573 20.6 4.71573C20.2076 4.71573 19.8313 4.87138 19.5535 5.14851C19.0752 5.62684 18.3402 5.70851 17.7195 5.43901C17.6218 5.3961 17.5234 5.35488 17.4243 5.31534C16.7955 5.06684 16.3335 4.48701 16.3335 3.81384Z" stroke="#757575"/>
<path d="M18.6668 14C18.6668 15.2377 18.1752 16.4247 17.3 17.2998C16.4248 18.175 15.2378 18.6667 14.0002 18.6667C12.7625 18.6667 11.5755 18.175 10.7003 17.2998C9.82516 16.4247 9.3335 15.2377 9.3335 14C9.3335 12.7623 9.82516 11.5753 10.7003 10.7002C11.5755 9.82501 12.7625 9.33334 14.0002 9.33334C15.2378 9.33334 16.4248 9.82501 17.3 10.7002C18.1752 11.5753 18.6668 12.7623 18.6668 14Z" stroke="#757575"/>
</svg>
