<svg width="26" height="26" viewBox="0 0 26 26" fill="none" xmlns="http://www.w3.org/2000/svg">
<path d="M15.3335 2.81381C15.3335 1.99598 14.6708 1.33331 13.853 1.33331H12.1485C11.3295 1.33331 10.6668 1.99598 10.6668 2.81381C10.6668 3.48815 10.2048 4.06681 9.576 4.31415C9.47644 4.35459 9.37805 4.39581 9.28083 4.43781C8.66133 4.70615 7.92516 4.62448 7.44683 4.14731C7.16906 3.87018 6.79271 3.71454 6.40033 3.71454C6.00795 3.71454 5.6316 3.87018 5.35383 4.14731L4.1475 5.35365C3.87036 5.63141 3.71472 6.00777 3.71472 6.40015C3.71472 6.79252 3.87036 7.16888 4.1475 7.44665C4.62583 7.92498 4.7075 8.65998 4.43683 9.28065C4.39431 9.37833 4.35347 9.47673 4.31433 9.57581C4.067 10.2046 3.48833 10.6666 2.814 10.6666C1.99616 10.6666 1.3335 11.3293 1.3335 12.1471V13.8528C1.3335 14.6706 1.99616 15.3333 2.814 15.3333C3.48833 15.3333 4.067 15.7953 4.31433 16.4241C4.35477 16.5237 4.39561 16.6221 4.43683 16.7193C4.70633 17.3388 4.62466 18.075 4.1475 18.5533C3.87036 18.8311 3.71472 19.2074 3.71472 19.5998C3.71472 19.9922 3.87036 20.3685 4.1475 20.6463L5.35383 21.8526C5.6316 22.1298 6.00795 22.2854 6.40033 22.2854C6.79271 22.2854 7.16906 22.1298 7.44683 21.8526C7.92516 21.3743 8.66016 21.2926 9.28083 21.5621C9.37805 21.6049 9.47644 21.6461 9.576 21.6858C10.2048 21.9331 10.6668 22.5118 10.6668 23.1861C10.6668 24.004 11.3295 24.6666 12.1473 24.6666H13.853C14.6708 24.6666 15.3335 24.004 15.3335 23.1861C15.3335 22.5118 15.7955 21.9331 16.4243 21.6846C16.5239 21.6458 16.6223 21.6053 16.7195 21.5633C17.339 21.2926 18.0752 21.3755 18.5523 21.8526C18.8301 22.1301 19.2067 22.286 19.5994 22.286C19.9921 22.286 20.3687 22.1301 20.6465 21.8526L21.8528 20.6463C22.13 20.3685 22.2856 19.9922 22.2856 19.5998C22.2856 19.2074 22.13 18.8311 21.8528 18.5533C21.3745 18.075 21.2928 17.34 21.5623 16.7193C21.6051 16.6221 21.6463 16.5237 21.686 16.4241C21.9333 15.7953 22.512 15.3333 23.1863 15.3333C24.0042 15.3333 24.6668 14.6706 24.6668 13.8528V12.1483C24.6668 11.3305 24.0042 10.6678 23.1863 10.6678C22.512 10.6678 21.9333 10.2058 21.6848 9.57698C21.6457 9.4779 21.6048 9.37949 21.5623 9.28181C21.294 8.66231 21.3757 7.92615 21.8528 7.44781C22.13 7.17004 22.2856 6.79369 22.2856 6.40131C22.2856 6.00894 22.13 5.63258 21.8528 5.35481L20.6465 4.14848C20.3687 3.87134 19.9924 3.7157 19.6 3.7157C19.2076 3.7157 18.8313 3.87134 18.5535 4.14848C18.0752 4.62681 17.3402 4.70848 16.7195 4.43898C16.6218 4.39607 16.5234 4.35485 16.4243 4.31531C15.7955 4.06681 15.3335 3.48698 15.3335 2.81381Z" stroke="white"/>
<path d="M17.6668 13C17.6668 14.2377 17.1752 15.4246 16.3 16.2998C15.4248 17.175 14.2378 17.6666 13.0002 17.6666C11.7625 17.6666 10.5755 17.175 9.70033 16.2998C8.82516 15.4246 8.3335 14.2377 8.3335 13C8.3335 11.7623 8.82516 10.5753 9.70033 9.70015C10.5755 8.82498 11.7625 8.33331 13.0002 8.33331C14.2378 8.33331 15.4248 8.82498 16.3 9.70015C17.1752 10.5753 17.6668 11.7623 17.6668 13Z" stroke="white"/>
</svg>
