<svg width="28" height="28" viewBox="0 0 28 28" fill="none" xmlns="http://www.w3.org/2000/svg">
<path d="M14.0327 20.1017C14.2909 20.1017 14.5087 20.013 14.686 19.8357C14.8633 19.6583 14.952 19.4406 14.952 19.1823C14.952 18.9241 14.8626 18.7063 14.6837 18.529C14.5063 18.3517 14.2886 18.263 14.0303 18.263C13.7721 18.263 13.5543 18.3521 13.377 18.5302C13.1997 18.7083 13.1114 18.9261 13.1122 19.1835C13.1122 19.4417 13.2008 19.6595 13.3782 19.8368C13.5571 20.0142 13.7752 20.1028 14.0327 20.1028M13.4295 16.2388H14.5565C14.5861 15.7317 14.6813 15.3195 14.8423 15.0022C15.0033 14.6856 15.3343 14.2812 15.8352 13.7888C16.3563 13.2685 16.7436 12.8022 16.9972 12.39C17.2507 11.9778 17.3779 11.501 17.3787 10.9597C17.3787 10.0403 17.0559 9.30767 16.4103 8.76167C15.764 8.21567 14.9994 7.94267 14.1167 7.94267C13.2774 7.94267 12.565 8.17056 11.9793 8.62633C11.3937 9.08289 10.9647 9.60711 10.6925 10.199L11.7658 10.6435C11.9525 10.2188 12.2197 9.84356 12.5673 9.51767C12.915 9.191 13.4167 9.02767 14.0723 9.02767C14.8283 9.02767 15.3806 9.23533 15.729 9.65067C16.0782 10.066 16.2528 10.5226 16.2528 11.0203C16.2528 11.4248 16.1436 11.7857 15.925 12.103C15.7072 12.4211 15.4233 12.7408 15.0733 13.062C14.3967 13.6858 13.9533 14.2147 13.7433 14.6487C13.5333 15.0827 13.4287 15.6127 13.4295 16.2388ZM14.0035 24.5C12.5522 24.5 11.1872 24.2247 9.9085 23.674C8.63061 23.1226 7.51878 22.3743 6.573 21.4293C5.62722 20.4843 4.87861 19.3737 4.32717 18.0973C3.77572 16.821 3.5 15.4564 3.5 14.0035C3.5 12.5506 3.77572 11.1856 4.32717 9.9085C4.87783 8.63061 5.62489 7.51878 6.56833 6.573C7.51178 5.62722 8.62283 4.87861 9.9015 4.32717C11.1802 3.77572 12.5452 3.5 13.9965 3.5C15.4478 3.5 16.8128 3.77572 18.0915 4.32717C19.3694 4.87783 20.4812 5.62528 21.427 6.5695C22.3728 7.51372 23.1214 8.62478 23.6728 9.90267C24.2243 11.1806 24.5 12.5452 24.5 13.9965C24.5 15.4478 24.2247 16.8128 23.674 18.0915C23.1233 19.3702 22.3751 20.482 21.4293 21.427C20.4836 22.372 19.3729 23.1206 18.0973 23.6728C16.8218 24.2251 15.4572 24.5008 14.0035 24.5ZM14 23.3333C16.6056 23.3333 18.8125 22.4292 20.6208 20.6208C22.4292 18.8125 23.3333 16.6056 23.3333 14C23.3333 11.3944 22.4292 9.1875 20.6208 7.37917C18.8125 5.57083 16.6056 4.66667 14 4.66667C11.3944 4.66667 9.1875 5.57083 7.37917 7.37917C5.57083 9.1875 4.66667 11.3944 4.66667 14C4.66667 16.6056 5.57083 18.8125 7.37917 20.6208C9.1875 22.4292 11.3944 23.3333 14 23.3333Z" fill="white"/>
</svg>
